<svg width="274" height="50" viewBox="0 0 274 50" fill="none" xmlns="http://www.w3.org/2000/svg">
  <path
     style="display:inline;fill:#ffffff;stroke:none;stroke-width:0.34756px;stroke-linecap:butt;stroke-linejoin:miter;stroke-opacity:1"
     d="M 42.421738,2.9637666 V 6.9358977 H 26.430202 V 18.953659 H 38.361589 V 15.589074 H 30.257084 V 11.479711 H 42.483798 V 23.063022 H 22.32084 V 2.9509979 Z"
     id="path1136" />
  <path
     style="display:inline;fill:#ffffff;stroke:none;stroke-width:0.34756px;stroke-linecap:butt;stroke-linejoin:miter;stroke-opacity:1"
     d="M 46.553038,3.0370456 V 7.0091767 H 62.544573 V 19.026938 H 50.613185 v -3.364585 h 8.104506 V 11.552992 H 46.490977 V 23.136301 H 66.653935 V 3.0242788 Z"
     id="path1136-0" />
  <path
     style="display:inline;fill:#ffffff;stroke:none;stroke-width:0.34756px;stroke-linecap:butt;stroke-linejoin:miter;stroke-opacity:1"
     d="M 46.428909,47.080451 V 43.10832 H 62.420444 V 31.090557 H 50.489056 v 3.364585 h 8.104507 v 4.109362 H 46.366849 V 26.981194 H 66.529805 V 47.09322 Z"
     id="path1136-0-4" />
  <path
     style="display:inline;fill:#ffffff;stroke:none;stroke-width:0.34756px;stroke-linecap:butt;stroke-linejoin:miter;stroke-opacity:1"
     d="M 42.44876,47.080451 V 43.10832 H 26.457226 V 31.090559 h 11.931387 v 3.364584 h -8.104505 v 4.109363 H 42.510821 V 26.981196 H 22.347864 V 47.09322 Z"
     id="path1136-0-7" />
  <g
     aria-label="Gespant PLC"
     transform="matrix(1.7781918,0,0,1.8573638,20.605629,-2.0101478)"
     id="text1202"
     style="font-style:normal;font-variant:normal;font-weight:bold;font-stretch:normal;font-size:16.7246px;line-height:1.25;font-family:Bahnschrift;-inkscape-font-specification:'Bahnschrift, Bold';font-variant-ligatures:normal;font-variant-caps:normal;font-variant-numeric:normal;font-variant-east-asian:normal;display:inline;fill:#ffffff;fill-opacity:1;stroke:none;stroke-width:0.25087" />
  <path
     d="m 103.67943,23.669692 v 4.307659 q 0,2.457184 -0.9584,4.33799 -0.94388,1.865641 -2.68643,2.897053 -1.742555,1.016244 -4.036915,1.016244 -2.308881,0 -4.080474,-0.955574 -1.757073,-0.970738 -2.729997,-2.730204 -0.958405,-1.759466 -0.958405,-4.080139 v -6.50699 q 0,-2.457184 0.943883,-4.322825 0.958405,-1.86564 2.700955,-2.881884 1.742552,-1.031409 4.036913,-1.031409 1.887763,0 3.485102,0.81906 1.597338,0.803894 2.657388,2.290339 1.07458,1.486446 1.45213,3.443092 v 0 h -4.298293 v 0 q -0.21782,-0.697719 -0.726065,-1.198256 -0.493722,-0.515705 -1.176223,-0.773557 -0.667977,-0.27302 -1.394039,-0.27302 -1.060053,0 -1.873243,0.485367 -0.79867,0.48537 -1.24883,1.380273 -0.435638,0.8949 -0.435638,2.06282 v 6.50699 q 0,1.031409 0.45016,1.820136 0.450159,0.788725 1.277871,1.213424 0.827711,0.424698 1.916805,0.424698 1.074573,0 1.873243,-0.455033 0.813192,-0.470204 1.24883,-1.349936 0.435638,-0.879732 0.435638,-2.077989 v -0.364027 h -3.194678 v -4.004302 z"
     style="font-style:normal;font-variant:normal;font-weight:bold;font-stretch:normal;font-size:16.7246px;line-height:1.25;font-family:Bahnschrift;-inkscape-font-specification:'Bahnschrift, Bold';font-variant-ligatures:normal;font-variant-caps:normal;font-variant-numeric:normal;font-variant-east-asian:normal;display:inline;fill:#ffffff;fill-opacity:1;stroke:none;stroke-width:0.455918"
     id="path860" />
  <path
     d="m 114.06214,36.228638 q -2.17819,0 -3.73197,-0.819064 -1.53925,-0.834229 -2.35244,-2.411681 -0.81319,-1.592619 -0.81319,-3.822287 v -1.774634 q 0,-2.335841 0.76963,-3.989132 0.78414,-1.653291 2.26531,-2.517854 1.49569,-0.864566 3.60128,-0.864566 1.97489,0 3.38345,1.031411 1.40856,1.03141 2.13463,3.003224 0.74058,1.956648 0.74058,4.732358 v 1.03141 h -10.3101 v -2.806044 h 6.67979 l -0.0436,-0.364029 q -0.15975,-1.365102 -0.82772,-2.108324 -0.65345,-0.743222 -1.75707,-0.743222 -1.4376,0 -2.23627,0.8949 -0.78415,0.894901 -0.78415,2.533023 v 2.002151 q 0,1.607787 0.85675,2.487521 0.87128,0.879732 2.42505,0.879732 0.79867,0 1.58282,-0.28819 0.78415,-0.303355 1.42309,-0.849395 v 0 l 2.5993,2.411681 v 0 q -1.17622,1.122417 -2.64287,1.744297 -1.46665,0.606714 -2.96233,0.606714 z"
     style="font-style:normal;font-variant:normal;font-weight:bold;font-stretch:normal;font-size:16.7246px;line-height:1.25;font-family:Bahnschrift;-inkscape-font-specification:'Bahnschrift, Bold';font-variant-ligatures:normal;font-variant-caps:normal;font-variant-numeric:normal;font-variant-east-asian:normal;display:inline;fill:#ffffff;fill-opacity:1;stroke:none;stroke-width:0.455918"
     id="path862" />
  <path
     d="m 129.30947,36.228638 q -1.35048,0 -2.62835,-0.242687 -1.27787,-0.257851 -2.39601,-0.743222 -1.11814,-0.48537 -1.97489,-1.167922 v 0 l 2.45409,-3.200405 v 0 q 1.0891,0.728054 2.27984,1.122417 1.19074,0.394364 2.26532,0.394364 1.39404,0 2.16367,-0.318527 0.76963,-0.333692 0.76963,-0.910067 0,-0.530872 -0.33399,-0.803894 -0.33399,-0.27302 -0.85676,-0.379193 -0.52276,-0.121344 -1.46665,-0.212352 -0.26138,-0.03033 -0.53729,-0.06068 -0.26138,-0.03033 -0.53728,-0.06066 -0.0581,-0.01527 -0.1307,-0.01527 -0.0581,-0.01526 -0.11617,-0.01526 -1.68447,-0.227516 -2.70095,-0.561208 -1.01649,-0.333692 -1.72803,-1.274096 -0.69703,-0.95557 -0.69703,-2.760539 0,-1.577453 0.72607,-2.69987 0.72606,-1.122419 2.10558,-1.698796 1.37952,-0.591544 3.33989,-0.591544 1.14718,0 2.27984,0.242684 1.14718,0.242687 2.19271,0.69772 1.04554,0.455036 1.93133,1.092083 v 0 l -2.36696,3.018393 v 0 q -0.98745,-0.576377 -2.06202,-0.894899 -1.07458,-0.318527 -2.06203,-0.318527 -1.20526,0 -1.87324,0.28819 -0.66798,0.288187 -0.66798,0.803894 0,0.394364 0.34851,0.62188 0.36303,0.212349 0.8858,0.318524 0.53729,0.09101 1.55377,0.212348 0.13071,0.01527 0.26139,0.03033 0.1307,0.01526 0.26138,0.03033 0.0581,0.01527 0.13071,0.01527 0.0726,0 0.1307,0.01527 1.75707,0.212347 2.86069,0.54604 1.10361,0.333692 1.87324,1.334766 0.78415,1.001075 0.78415,2.942555 0,1.638122 -0.75511,2.806044 -0.7551,1.167921 -2.20723,1.789801 -1.45212,0.606712 -3.49963,0.606712 z"
     style="font-style:normal;font-variant:normal;font-weight:bold;font-stretch:normal;font-size:16.7246px;line-height:1.25;font-family:Bahnschrift;-inkscape-font-specification:'Bahnschrift, Bold';font-variant-ligatures:normal;font-variant-caps:normal;font-variant-numeric:normal;font-variant-east-asian:normal;display:inline;fill:#ffffff;fill-opacity:1;stroke:none;stroke-width:0.455918"
     id="path864" />
  <path
     d="m 138.96611,20.256937 h 3.97883 v 22.144995 h -3.97883 z m 7.47845,15.971701 q -1.32144,0 -2.27984,-0.69772 -0.9584,-0.712889 -1.42308,-2.002151 l 0.2033,-3.59477 q 0,0.773559 0.26138,1.319599 0.26138,0.546042 0.7551,0.83423 0.50825,0.288187 1.21979,0.288187 1.11814,0 1.72803,-0.773557 0.62442,-0.773559 0.62442,-2.184165 v -2.502688 q 0,-1.44094 -0.62442,-2.229667 -0.60989,-0.803892 -1.72803,-0.803892 -0.71154,0 -1.21979,0.303355 -0.49372,0.288189 -0.7551,0.849397 -0.26138,0.561209 -0.26138,1.365102 l -0.30495,-3.488595 q 0.60989,-1.38027 1.59734,-2.123492 1.00197,-0.758391 2.20723,-0.758391 1.59734,0 2.73,0.803894 1.14718,0.803894 1.74255,2.351009 0.59537,1.547116 0.59537,3.716112 v 2.517856 q 0,2.153828 -0.59537,3.685777 -0.59537,1.516781 -1.74255,2.320674 -1.13266,0.803896 -2.73,0.803896 z"
     style="font-style:normal;font-variant:normal;font-weight:bold;font-stretch:normal;font-size:16.7246px;line-height:1.25;font-family:Bahnschrift;-inkscape-font-specification:'Bahnschrift, Bold';font-variant-ligatures:normal;font-variant-caps:normal;font-variant-numeric:normal;font-variant-east-asian:normal;display:inline;fill:#ffffff;fill-opacity:1;stroke:none;stroke-width:0.455918"
     id="path866" />
  <path
     d="m 163.43444,26.020703 q 0,-1.092082 -0.69702,-1.683626 -0.69702,-0.591545 -1.97489,-0.591545 -0.84224,0 -1.66995,0.288189 -0.82771,0.288188 -1.46665,0.803893 l -2.46861,-2.533022 q 0.90031,-1.076914 2.38148,-1.668458 1.48117,-0.606714 3.28181,-0.606714 1.97489,0 3.36893,0.697721 1.39404,0.682548 2.12011,2.002147 0.74058,1.304433 0.74058,3.154905 v 10.116926 h -3.61579 z m -4.19665,10.207935 q -2.42505,0 -3.63031,-1.198259 -1.19075,-1.213424 -1.19075,-3.670608 0,-2.335843 1.33596,-3.503762 1.35048,-1.167922 4.03691,-1.167922 h 3.77553 l 0.2033,3.170071 h -3.96431 q -0.90032,0 -1.35048,0.379195 -0.45016,0.364027 -0.45016,1.122418 0,0.773559 0.56633,1.152752 0.56633,0.36403 1.71351,0.36403 1.59734,0 2.36697,-0.379197 0.78415,-0.379195 0.78415,-1.183087 l 0.30494,2.290336 q -0.0871,0.849399 -0.7551,1.440944 -0.65346,0.591544 -1.65543,0.894899 -0.98744,0.28819 -2.09106,0.28819 z"
     style="font-style:normal;font-variant:normal;font-weight:bold;font-stretch:normal;font-size:16.7246px;line-height:1.25;font-family:Bahnschrift;-inkscape-font-specification:'Bahnschrift, Bold';font-variant-ligatures:normal;font-variant-caps:normal;font-variant-numeric:normal;font-variant-east-asian:normal;display:inline;fill:#ffffff;fill-opacity:1;stroke:none;stroke-width:0.455918"
     id="path868" />
  <path
     d="m 170.97098,20.256937 h 3.97882 v 15.744182 h -3.97882 z m 8.71276,6.203633 q 0,-1.152752 -0.63894,-1.789801 -0.62441,-0.637048 -1.78612,-0.637048 -1.10361,0 -1.7135,0.652215 -0.59538,0.637048 -0.59538,1.804969 l -0.30494,-3.488595 q 0.6825,-1.486444 1.62638,-2.229668 0.9584,-0.743222 2.39601,-0.743222 2.38148,0 3.6884,1.683628 1.30691,1.668457 1.30691,4.732354 v 9.555717 h -3.97882 z"
     style="font-style:normal;font-variant:normal;font-weight:bold;font-stretch:normal;font-size:16.7246px;line-height:1.25;font-family:Bahnschrift;-inkscape-font-specification:'Bahnschrift, Bold';font-variant-ligatures:normal;font-variant-caps:normal;font-variant-numeric:normal;font-variant-east-asian:normal;display:inline;fill:#ffffff;fill-opacity:1;stroke:none;stroke-width:0.455918"
     id="path870" />
  <path
     d="m 191.79446,36.076958 q -1.97489,0 -2.90425,-1.046579 -0.91484,-1.061745 -0.91484,-3.124568 V 15.676259 h 3.97883 v 15.198143 q 0,0.576377 0.21782,0.894899 0.21782,0.303355 0.63893,0.303355 h 0.98745 v 4.004302 z M 186.4216,20.256937 h 7.3768 v 3.549267 h -7.3768 z"
     style="font-style:normal;font-variant:normal;font-weight:bold;font-stretch:normal;font-size:16.7246px;line-height:1.25;font-family:Bahnschrift;-inkscape-font-specification:'Bahnschrift, Bold';font-variant-ligatures:normal;font-variant-caps:normal;font-variant-numeric:normal;font-variant-east-asian:normal;display:inline;fill:#ffffff;fill-opacity:1;stroke:none;stroke-width:0.455918"
     id="path872" />
  <path
     d="m 207.37578,23.442177 h 6.7524 q 0.71153,0 1.24883,-0.333692 0.5518,-0.34886 0.85675,-0.97074 0.30493,-0.621879 0.30493,-1.425774 v 0 q 0,-0.81906 -0.30493,-1.440941 -0.29045,-0.637047 -0.84225,-0.970739 -0.53728,-0.34886 -1.26333,-0.34886 h -6.7524 v -4.004303 h 6.65074 q 1.97489,0 3.47059,0.849399 1.51021,0.834228 2.3379,2.366177 0.82771,1.531949 0.82771,3.549267 v 0 q 0,2.017317 -0.82771,3.549266 -0.82769,1.516781 -2.3379,2.35101 -1.4957,0.83423 -3.47059,0.83423 h -6.65074 z m -1.81516,-9.495049 h 3.97883 v 22.053991 h -3.97883 z"
     style="font-style:normal;font-variant:normal;font-weight:bold;font-stretch:normal;font-size:16.7246px;line-height:1.25;font-family:Bahnschrift;-inkscape-font-specification:'Bahnschrift, Bold';font-variant-ligatures:normal;font-variant-caps:normal;font-variant-numeric:normal;font-variant-east-asian:normal;display:inline;fill:#ffffff;fill-opacity:1;stroke:none;stroke-width:0.455918"
     id="path874" />
  <path
     d="m 223.7848,13.947128 h 3.97884 v 22.053991 h -3.97884 z m 1.7716,18.049691 h 12.37212 v 4.0043 H 225.5564 Z"
     style="font-style:normal;font-variant:normal;font-weight:bold;font-stretch:normal;font-size:16.7246px;line-height:1.25;font-family:Bahnschrift;-inkscape-font-specification:'Bahnschrift, Bold';font-variant-ligatures:normal;font-variant-caps:normal;font-variant-numeric:normal;font-variant-east-asian:normal;display:inline;fill:#ffffff;fill-opacity:1;stroke:none;stroke-width:0.455918"
     id="path876" />
  <path
     d="m 247.45447,36.228638 q -2.41055,0 -4.12405,-0.955574 -1.71351,-0.970738 -2.61384,-2.806043 -0.90031,-1.850472 -0.90031,-4.459335 v -6.051955 q 0,-2.608863 0.90031,-4.444167 0.90033,-1.850472 2.61384,-2.821212 1.7135,-0.970739 4.12405,-0.970739 1.98939,0 3.55771,0.894899 1.5683,0.894902 2.58477,2.608864 1.03102,1.698794 1.4231,4.110475 v 0 h -4.12404 v 0 q -0.23236,-1.092082 -0.72608,-1.865639 -0.4792,-0.773559 -1.17621,-1.183089 -0.6825,-0.409532 -1.53925,-0.409532 -1.11816,0 -1.90231,0.48537 -0.78413,0.470202 -1.20525,1.395439 -0.40661,0.910067 -0.40661,2.199331 v 6.051955 q 0,1.289264 0.40661,2.199331 0.42112,0.910069 1.20525,1.395439 0.78415,0.4702 1.90231,0.4702 0.87127,0 1.56828,-0.394362 0.69702,-0.40953 1.17622,-1.183089 0.47922,-0.773557 0.69704,-1.880807 v 0 h 4.12404 v 0 q -0.4066,2.411681 -1.43762,4.125643 -1.01649,1.698794 -2.58477,2.593695 -1.5538,0.894902 -3.54319,0.894902 z"
     style="font-style:normal;font-variant:normal;font-weight:bold;font-stretch:normal;font-size:16.7246px;line-height:1.25;font-family:Bahnschrift;-inkscape-font-specification:'Bahnschrift, Bold';font-variant-ligatures:normal;font-variant-caps:normal;font-variant-numeric:normal;font-variant-east-asian:normal;display:inline;fill:#ffffff;fill-opacity:1;stroke:none;stroke-width:0.455918"
     id="path878" />
</svg>
